<svg xmlns="http://www.w3.org/2000/svg" viewBox="0 0 1600 700" role="img">
  <defs>
    <linearGradient id="sky" x1="0" x2="0" y1="0" y2="1">
      <stop offset="0" stop-color="#93bdd6"/>
      <stop offset=".52" stop-color="#d9c6aa"/>
      <stop offset="1" stop-color="#b89069"/>
    </linearGradient>
    <linearGradient id="shade" x1="0" x2="1" y1="0" y2="0">
      <stop offset="0" stop-color="#120b08" stop-opacity=".85"/>
      <stop offset=".45" stop-color="#1f120b" stop-opacity=".55"/>
      <stop offset="1" stop-color="#251409" stop-opacity=".06"/>
    </linearGradient>
    <filter id="grain">
      <feTurbulence type="fractalNoise" baseFrequency=".9" numOctaves="2" stitchTiles="stitch"/>
      <feColorMatrix type="saturate" values="0"/>
      <feComponentTransfer>
        <feFuncA type="table" tableValues="0 .16"/>
      </feComponentTransfer>
    </filter>
  </defs>

  <rect width="1600" height="700" fill="url(#sky)"/>
  <rect y="455" width="1600" height="245" fill="#c5aa87"/>

  <g opacity=".55">
    <path d="M0 410c130-36 280-38 420-22 112 13 221 45 347 29 155-20 292-71 460-51 135 16 253 53 373 25v309H0z" fill="#927158"/>
    <path d="M0 512c145-31 312-25 469-7 205 23 326-7 485-34 228-39 429 13 646-9v238H0z" fill="#a27d61"/>
  </g>

  <g fill="#b88a58">
    <rect x="1134" y="182" width="285" height="330"/>
    <rect x="1208" y="118" width="140" height="68"/>
    <rect x="1428" y="232" width="105" height="280"/>
    <rect x="22" y="278" width="212" height="260"/>
  </g>

  <g fill="#705244" opacity=".9">
    <rect x="1164" y="248" width="40" height="74"/>
    <rect x="1234" y="248" width="40" height="74"/>
    <rect x="1304" y="248" width="40" height="74"/>
    <rect x="1374" y="248" width="40" height="74"/>
    <rect x="1236" y="386" width="44" height="86"/>
    <rect x="1325" y="386" width="44" height="86"/>
    <rect x="1458" y="292" width="38" height="74"/>
    <rect x="1458" y="418" width="38" height="74"/>
  </g>

  <g>
    <path d="M275 182h770l-78 78H210z" fill="#897262"/>
    <path d="M221 260h792l58 58H162z" fill="#5f5149"/>
    <rect x="210" y="318" width="845" height="36" fill="#796452"/>
    <rect x="247" y="354" width="770" height="178" fill="#6b584a"/>
    <rect x="230" y="532" width="810" height="44" fill="#8b715a"/>
  </g>

  <g fill="#d1c1ac">
    <rect x="300" y="352" width="46" height="190"/>
    <rect x="410" y="352" width="46" height="190"/>
    <rect x="520" y="352" width="46" height="190"/>
    <rect x="630" y="352" width="46" height="190"/>
    <rect x="740" y="352" width="46" height="190"/>
    <rect x="850" y="352" width="46" height="190"/>
    <rect x="960" y="352" width="46" height="190"/>
  </g>

  <g fill="#8a7565">
    <rect x="289" y="330" width="68" height="26"/>
    <rect x="399" y="330" width="68" height="26"/>
    <rect x="509" y="330" width="68" height="26"/>
    <rect x="619" y="330" width="68" height="26"/>
    <rect x="729" y="330" width="68" height="26"/>
    <rect x="839" y="330" width="68" height="26"/>
    <rect x="949" y="330" width="68" height="26"/>
  </g>

  <path d="M184 578h1060l228 122H28z" fill="#846b57" opacity=".55"/>
  <rect width="1600" height="700" fill="#3b2a20" opacity=".14" filter="url(#grain)"/>
  <rect width="1600" height="700" fill="url(#shade)"/>
</svg>
