<svg xmlns="http://www.w3.org/2000/svg" viewBox="0 0 100 100" width="512" height="512">
  <path fill="#D8831B" d="M50 10 C27.9 10 10 27.9 10 50 C10 57.8 12.2 65.3 16.2 71.7 L11 90 L29.9 84.9 C35.9 88.2 42.8 90 50 90 C72.1 90 90 72.1 90 50 C90 27.9 72.1 10 50 10 Z M50 82 C43.5 82 37.3 80.3 31.8 77.1 L30.5 76.3 L19.2 79.3 L22.2 68.3 L21.3 66.9 C17.7 61.1 15.8 54.4 15.8 47.5 C15.8 28.6 31.1 13.3 50 13.3 C68.9 13.3 84.2 28.6 84.2 47.5 C84.2 66.4 68.9 82 50 82 Z"/>
  <path fill="#D8831B" d="M68.5 59.3 C67.5 58.8 62.6 56.4 61.7 56.1 C60.8 55.7 60.1 55.5 59.5 56.5 C58.8 57.5 57.1 59.5 56.5 60.1 C56 60.7 55.4 60.8 54.4 60.3 C53.4 59.8 50.2 58.7 46.4 55.3 C43.4 52.7 41.4 49.4 40.8 48.4 C40.2 47.4 40.7 46.9 41.2 46.4 C41.7 45.9 42.2 45.2 42.8 44.6 C43.3 44 43.5 43.5 43.8 42.9 C44.1 42.2 44 41.6 43.7 41 C43.5 40.4 41.7 36 40.9 34.2 C40.2 32.5 39.4 32.7 38.8 32.7 C38.3 32.7 37.6 32.7 37 32.7 C36.3 32.7 35.3 33 34.4 34 C33.5 35 31 37.3 31 42 C31 46.7 34.4 51.2 34.9 51.9 C35.4 52.6 41.6 62.1 51.1 66.2 C53.4 67.2 55.1 67.8 56.5 68.2 C58.8 69 60.9 68.9 62.6 68.6 C64.5 68.3 68.4 66.2 69.2 63.9 C70 61.6 70 59.6 69.8 59.3 C69.5 59 69 58.8 68.5 59.3 Z"/>
</svg>
